<svg width="24" height="25" viewBox="0 0 24 25" fill="none" xmlns="http://www.w3.org/2000/svg">
<path fill-rule="evenodd" clip-rule="evenodd" d="M4 3.41406C4 3.14885 4.10536 2.89449 4.29289 2.70696C4.48043 2.51942 4.73478 2.41406 5 2.41406H19C19.2652 2.41406 19.5196 2.51942 19.7071 2.70696C19.8946 2.89449 20 3.14885 20 3.41406V21.4141C20 21.6793 19.8946 21.9336 19.7071 22.1212C19.5196 22.3087 19.2652 22.4141 19 22.4141H5C4.73478 22.4141 4.48043 22.3087 4.29289 22.1212C4.10536 21.9336 4 21.6793 4 21.4141V3.41406ZM5.2 3.61406V21.2141H18.8V3.61406H5.2ZM14.91 13.7201L16.652 14.3751C16.7517 14.4187 16.837 14.4894 16.8984 14.5793C16.9598 14.6691 16.9946 14.7744 16.999 14.8831C17.007 14.9751 16.961 15.0831 16.953 15.1061C16.7845 15.5686 16.4484 15.9511 16.0114 16.1778C15.5744 16.4044 15.0682 16.4588 14.593 16.3301C13.0039 15.965 11.5499 15.1591 10.398 14.0051C9.24296 12.8559 8.43598 11.4038 8.07 9.81606C8.062 9.76206 8 9.53906 8 9.30006C8 8.45306 8.54 7.73706 9.296 7.46006C9.319 7.45206 9.426 7.41406 9.519 7.41406C9.62774 7.41495 9.73388 7.44747 9.82444 7.50767C9.91501 7.56787 9.98609 7.65314 10.029 7.75306L10.684 9.49306C10.714 9.57806 10.699 9.62306 10.653 9.70906C10.498 9.97806 10.128 10.6561 9.92 11.0641C9.86196 11.1682 9.83275 11.2859 9.83538 11.4051C9.83802 11.5243 9.87241 11.6406 9.935 11.7421C10.2592 12.3052 10.6533 12.825 11.108 13.2891C11.563 13.7511 12.095 14.1361 12.658 14.4671C12.7595 14.5297 12.8758 14.564 12.995 14.5667C13.1141 14.5693 13.2319 14.5401 13.336 14.4821C13.791 14.2434 14.2434 13.9997 14.693 13.7511C14.778 13.7051 14.817 13.6891 14.909 13.7211L14.91 13.7201Z" fill="#DAAA1D"/>
</svg>
