<svg width="390" height="768" viewBox="0 0 390 768" fill="none" xmlns="http://www.w3.org/2000/svg">
<g clip-path="url(#clip0_174_1292)">
<g opacity="0.23">
<path d="M319.958 0L357.147 113.183H278.728L221.328 69.5265L319.958 0Z" fill="#F18D8F"/>
<path d="M69.6594 0L32.4708 113.183H110.89L168.29 69.5265L69.6594 0Z" fill="#F18D8F"/>
<path d="M514.754 141.975L478.422 255.436L414.935 209.403L394.092 140.366L514.754 141.975Z" fill="#F18D8F"/>
<path d="M-125.136 141.975L-88.8044 255.436L-25.3174 209.403L-4.47378 140.366L-125.136 141.975Z" fill="#F18D8F"/>
<path d="M317.992 746.184L221.328 676.547L284.737 630.407L356.836 631.934L317.992 746.184Z" fill="#F18D8F"/>
<path d="M71.6258 746.184L168.29 676.547L104.881 630.407L32.7822 631.934L71.6258 746.184Z" fill="#F18D8F"/>
<path d="M333.702 184.326L355.53 168.157L378.975 184.326L364.423 141.478H319.958L340.978 158.456L333.702 184.326Z" fill="#F18D8F"/>
<path d="M58.9742 185.134L37.1461 168.965L13.7011 185.134L28.2532 142.287H72.7178L51.6981 159.264L58.9742 185.134Z" fill="#F18D8F"/>
<path d="M334.33 561.302L342.077 587.338L318.876 603.856L364.118 604.804L379.296 563.01L356.163 576.972L334.33 561.302Z" fill="#F18D8F"/>
<path d="M58.3457 562.11L50.5991 588.146L73.7999 604.664L28.5584 605.612L13.3802 563.818L36.513 577.78L58.3457 562.11Z" fill="#F18D8F"/>
<path d="M196.261 604.425L188.341 630.409L159.877 631.366L197.07 657.141L232.804 630.681L205.809 629.545L196.261 604.425Z" fill="#F18D8F"/>
<path d="M196.27 134.137L188.35 108.153L159.886 107.195L197.079 81.42L232.813 107.88L205.818 109.016L196.27 134.137Z" fill="#F18D8F"/>
<path d="M210.818 185.943L235.071 256.278L295.705 211.005L309.449 168.157L272.26 141.478H225.37L210.818 185.943Z" fill="#F18D8F"/>
<path d="M181.232 186.751L156.978 257.086L96.3449 211.813L82.6013 168.965L119.79 142.287H166.68L181.232 186.751Z" fill="#F18D8F"/>
<path d="M211.626 560.09L235.88 489.755L296.513 535.028L310.257 577.876L273.068 604.555H226.178L211.626 560.09Z" fill="#F18D8F"/>
<path d="M180.423 560.899L156.17 490.564L95.5365 535.837L81.7929 578.684L118.981 605.363H165.871L180.423 560.899Z" fill="#F18D8F"/>
<path d="M320.108 229.605L297.325 300.429L372.996 300.575L409.694 274.535L395.941 230.882L358.423 202.756L320.108 229.605Z" fill="#F18D8F"/>
<path d="M71.9416 230.413L94.725 301.238L19.0543 301.384L-17.6438 275.344L-3.89106 231.691L33.6268 203.565L71.9416 230.413Z" fill="#F18D8F"/>
<path d="M320.917 516.428L298.133 445.604L373.804 445.458L410.502 471.497L396.749 515.151L359.232 543.277L320.917 516.428Z" fill="#F18D8F"/>
<path d="M71.1331 517.237L93.9165 446.412L18.2458 446.266L-18.4522 472.306L-4.69953 515.959L32.8183 544.085L71.1331 517.237Z" fill="#F18D8F"/>
<path d="M380.181 327.805L321.196 373.148L383.388 416.256L428.382 415.674L441.863 371.936L426.966 327.476L380.181 327.805Z" fill="#F18D8F"/>
<path d="M11.8684 328.613L70.8534 373.956L8.66194 417.064L-36.3322 416.482L-49.8133 372.745L-34.9157 328.284L11.8684 328.613Z" fill="#F18D8F"/>
<path d="M197.074 228.791L210.818 272.447L197.074 283.765L182.522 272.447L197.074 228.791Z" fill="#F18D8F"/>
<path d="M114.919 259.108L129.224 302.583L146.99 303.758L152.206 286.076L114.919 259.108Z" fill="#F18D8F"/>
<path d="M280.214 256.129L265.92 299.608L248.155 300.788L242.934 283.107L280.214 256.129Z" fill="#F18D8F"/>
<path d="M63.3423 329.814L100.317 356.789L115.434 347.383L109.36 329.977L63.3423 329.814Z" fill="#F18D8F"/>
<path d="M280.503 486.592L244.042 458.925L248.709 441.744L267.126 442.561L280.503 486.592Z" fill="#F18D8F"/>
<path d="M197.555 517.164L211.028 473.424L197.215 462.191L182.733 473.599L197.555 517.164Z" fill="#F18D8F"/>
<path d="M332.975 327.389L296.446 354.963L281.177 345.805L286.967 328.302L332.975 327.389Z" fill="#F18D8F"/>
<path d="M62.061 418.471L107.817 419.556L114.875 403.211L99.9618 392.372L62.061 418.471Z" fill="#F18D8F"/>
<path d="M329.694 415.744L283.938 416.767L276.901 400.412L291.829 389.594L329.694 415.744Z" fill="#F18D8F"/>
<path d="M116.27 488.32L154.031 462.457L150.205 445.069L131.769 444.991L116.27 488.32Z" fill="#F18D8F"/>
</g>
</g>
<defs>
<clipPath id="clip0_174_1292">
<rect width="602" height="768" fill="white" transform="translate(-212)"/>
</clipPath>
</defs>
</svg>
