<svg width="181" height="53" viewBox="0 0 181 53" fill="none" xmlns="http://www.w3.org/2000/svg">
<path d="M8.3351 0L34.8342 26.3008C34.952 26.4178 35.1421 26.4183 35.2607 26.3021L62.0865 0H53.559L35.2108 18.2309L16.8626 0H8.3351Z" fill="#AE1913"/>
<path d="M53.3187 53L63.365 20.1271L39.69 43.6508L39.7244 43.6853L35.6391 47.6792C35.5209 47.7947 35.3318 47.7945 35.2139 47.6786L31.1407 43.6724L31.1883 43.6252L7.95084 20.2547L17.9642 53H11.7393L0.132482 14.08C-0.850137 10.2723 3.86446 7.62009 6.64489 10.4164L35.4521 39.3886L64.664 10.3634C67.4527 7.59262 72.1394 10.2477 71.1599 14.0435L59.5437 53H53.3187Z" fill="#AE1913"/>
<path d="M96.2415 28.7714V17.4809L91.8244 25.8882H89.9556L85.5386 17.4809V28.7714H82.1893V11.5691H85.7813L90.8779 21.3575L96.0231 11.5691H99.5907V28.7714H96.2415Z" fill="#AE1913"/>
<path d="M108.533 29.0137C107.497 29.0137 106.567 28.8441 105.742 28.5049C104.917 28.1496 104.213 27.665 103.63 27.0512C103.064 26.4374 102.627 25.7348 102.32 24.9433C102.012 24.1518 101.859 23.32 101.859 22.4478C101.859 21.5594 102.012 20.7195 102.32 19.928C102.627 19.1365 103.064 18.4339 103.63 17.8201C104.213 17.2063 104.917 16.7298 105.742 16.3906C106.567 16.0353 107.497 15.8576 108.533 15.8576C109.568 15.8576 110.491 16.0353 111.3 16.3906C112.125 16.7298 112.829 17.2063 113.411 17.8201C113.993 18.4339 114.43 19.1365 114.722 19.928C115.029 20.7195 115.183 21.5594 115.183 22.4478C115.183 23.32 115.029 24.1518 114.722 24.9433C114.43 25.7348 113.993 26.4374 113.411 27.0512C112.845 27.665 112.149 28.1496 111.324 28.5049C110.499 28.8441 109.568 29.0137 108.533 29.0137ZM105.208 22.4478C105.208 23.1908 105.353 23.853 105.645 24.4345C105.936 24.9998 106.332 25.444 106.834 25.7671C107.335 26.0901 107.902 26.2517 108.533 26.2517C109.148 26.2517 109.706 26.0901 110.207 25.7671C110.709 25.4279 111.105 24.9756 111.397 24.4103C111.704 23.8288 111.858 23.1666 111.858 22.4235C111.858 21.6967 111.704 21.0425 111.397 20.461C111.105 19.8795 110.709 19.4273 110.207 19.1042C109.706 18.7812 109.148 18.6197 108.533 18.6197C107.902 18.6197 107.335 18.7893 106.834 19.1285C106.332 19.4515 105.936 19.9038 105.645 20.4853C105.353 21.0506 105.208 21.7048 105.208 22.4478Z" fill="#AE1913"/>
<path d="M124.95 18.8862C123.963 18.8862 123.081 19.08 122.304 19.4677C121.528 19.8392 120.97 20.3803 120.63 21.091V28.7714H117.378V16.0757H120.363V18.7893C120.816 17.917 121.39 17.2306 122.086 16.7298C122.782 16.2291 123.518 15.9545 124.295 15.9061C124.473 15.9061 124.61 15.9061 124.707 15.9061C124.804 15.9061 124.885 15.9141 124.95 15.9303V18.8862Z" fill="#AE1913"/>
<path d="M132.471 29.0137C131.435 29.0137 130.505 28.8441 129.68 28.5049C128.854 28.1496 128.151 27.665 127.568 27.0512C127.002 26.4374 126.565 25.7348 126.258 24.9433C125.95 24.1518 125.796 23.32 125.796 22.4478C125.796 21.5594 125.95 20.7195 126.258 19.928C126.565 19.1365 127.002 18.4339 127.568 17.8201C128.151 17.2063 128.854 16.7298 129.68 16.3906C130.505 16.0353 131.435 15.8576 132.471 15.8576C133.506 15.8576 134.428 16.0353 135.237 16.3906C136.063 16.7298 136.766 17.2063 137.349 17.8201C137.931 18.4339 138.368 19.1365 138.659 19.928C138.967 20.7195 139.121 21.5594 139.121 22.4478C139.121 23.32 138.967 24.1518 138.659 24.9433C138.368 25.7348 137.931 26.4374 137.349 27.0512C136.783 27.665 136.087 28.1496 135.262 28.5049C134.437 28.8441 133.506 29.0137 132.471 29.0137ZM129.146 22.4478C129.146 23.1908 129.291 23.853 129.583 24.4345C129.874 24.9998 130.27 25.444 130.772 25.7671C131.273 26.0901 131.84 26.2517 132.471 26.2517C133.085 26.2517 133.644 26.0901 134.145 25.7671C134.647 25.4279 135.043 24.9756 135.334 24.4103C135.642 23.8288 135.796 23.1666 135.796 22.4235C135.796 21.6967 135.642 21.0425 135.334 20.461C135.043 19.8795 134.647 19.4273 134.145 19.1042C133.644 18.7812 133.085 18.6197 132.471 18.6197C131.84 18.6197 131.273 18.7893 130.772 19.1285C130.27 19.4515 129.874 19.9038 129.583 20.4853C129.291 21.0506 129.146 21.7048 129.146 22.4478Z" fill="#AE1913"/>
<path d="M147.237 29.0137C146.202 29.0137 145.272 28.8441 144.446 28.5049C143.621 28.1496 142.917 27.665 142.335 27.0512C141.752 26.4213 141.299 25.7106 140.976 24.9191C140.668 24.1276 140.515 23.2958 140.515 22.4235C140.515 21.2283 140.782 20.138 141.316 19.1527C141.866 18.1512 142.642 17.3517 143.646 16.7541C144.649 16.1564 145.838 15.8576 147.213 15.8576C148.588 15.8576 149.77 16.1564 150.757 16.7541C151.744 17.3517 152.48 18.1351 152.965 19.1042L149.786 20.0734C149.511 19.605 149.147 19.2496 148.694 19.0073C148.241 18.7489 147.739 18.6197 147.189 18.6197C146.574 18.6197 146.008 18.7812 145.49 19.1042C144.988 19.4111 144.592 19.8553 144.301 20.4368C144.01 21.0021 143.864 21.6644 143.864 22.4235C143.864 23.1666 144.01 23.8288 144.301 24.4103C144.608 24.9756 145.013 25.4279 145.514 25.7671C146.016 26.0901 146.574 26.2517 147.189 26.2517C147.577 26.2517 147.941 26.187 148.281 26.0578C148.637 25.9286 148.952 25.7509 149.228 25.5248C149.503 25.2987 149.705 25.0402 149.834 24.7495L153.014 25.7186C152.722 26.3486 152.294 26.9139 151.727 27.4146C151.177 27.9154 150.522 28.3111 149.761 28.6018C149.017 28.8764 148.176 29.0137 147.237 29.0137Z" fill="#AE1913"/>
<path d="M160.818 29.0137C159.783 29.0137 158.852 28.8441 158.027 28.5049C157.202 28.1496 156.498 27.665 155.916 27.0512C155.333 26.4213 154.88 25.7106 154.556 24.9191C154.249 24.1276 154.095 23.2958 154.095 22.4235C154.095 21.2283 154.362 20.138 154.896 19.1527C155.446 18.1512 156.223 17.3517 157.226 16.7541C158.229 16.1564 159.418 15.8576 160.794 15.8576C162.169 15.8576 163.35 16.1564 164.337 16.7541C165.324 17.3517 166.06 18.1351 166.546 19.1042L163.366 20.0734C163.091 19.605 162.727 19.2496 162.274 19.0073C161.821 18.7489 161.32 18.6197 160.77 18.6197C160.155 18.6197 159.588 18.7812 159.071 19.1042C158.569 19.4111 158.173 19.8553 157.881 20.4368C157.59 21.0021 157.445 21.6644 157.445 22.4235C157.445 23.1666 157.59 23.8288 157.881 24.4103C158.189 24.9756 158.593 25.4279 159.095 25.7671C159.596 26.0901 160.155 26.2517 160.77 26.2517C161.158 26.2517 161.522 26.187 161.862 26.0578C162.218 25.9286 162.533 25.7509 162.808 25.5248C163.083 25.2987 163.285 25.0402 163.415 24.7495L166.594 25.7186C166.303 26.3486 165.874 26.9139 165.308 27.4146C164.758 27.9154 164.103 28.3111 163.342 28.6018C162.598 28.8764 161.756 29.0137 160.818 29.0137Z" fill="#AE1913"/>
<path d="M174.35 29.0137C173.315 29.0137 172.384 28.8441 171.559 28.5049C170.734 28.1496 170.03 27.665 169.448 27.0512C168.881 26.4374 168.444 25.7348 168.137 24.9433C167.83 24.1518 167.676 23.32 167.676 22.4478C167.676 21.5594 167.83 20.7195 168.137 19.928C168.444 19.1365 168.881 18.4339 169.448 17.8201C170.03 17.2063 170.734 16.7298 171.559 16.3906C172.384 16.0353 173.315 15.8576 174.35 15.8576C175.386 15.8576 176.308 16.0353 177.117 16.3906C177.942 16.7298 178.646 17.2063 179.228 17.8201C179.811 18.4339 180.248 19.1365 180.539 19.928C180.846 20.7195 181 21.5594 181 22.4478C181 23.32 180.846 24.1518 180.539 24.9433C180.248 25.7348 179.811 26.4374 179.228 27.0512C178.662 27.665 177.966 28.1496 177.141 28.5049C176.316 28.8441 175.386 29.0137 174.35 29.0137ZM171.025 22.4478C171.025 23.1908 171.171 23.853 171.462 24.4345C171.753 24.9998 172.15 25.444 172.651 25.7671C173.153 26.0901 173.719 26.2517 174.35 26.2517C174.965 26.2517 175.523 26.0901 176.025 25.7671C176.526 25.4279 176.923 24.9756 177.214 24.4103C177.521 23.8288 177.675 23.1666 177.675 22.4235C177.675 21.6967 177.521 21.0425 177.214 20.461C176.923 19.8795 176.526 19.4273 176.025 19.1042C175.523 18.7812 174.965 18.6197 174.35 18.6197C173.719 18.6197 173.153 18.7893 172.651 19.1285C172.15 19.4515 171.753 19.9038 171.462 20.4853C171.171 21.0506 171.025 21.7048 171.025 22.4478Z" fill="#AE1913"/>
<path d="M81.9588 35.5554L86.5822 46.8762L91.1873 35.5554H92.5161L87.1646 48.4571H85.9997L80.63 35.5554H81.9588Z" fill="#AE1913"/>
<path d="M94.1126 48.4571V38.9898H95.3504V48.4571H94.1126ZM94.1126 37.0091V35.192H95.3504V37.0091H94.1126Z" fill="#AE1913"/>
<path d="M102.172 48.6389C101.493 48.6389 100.862 48.5117 100.279 48.2573C99.6966 47.9907 99.193 47.6334 98.7683 47.1851C98.3436 46.7248 98.0099 46.1978 97.7672 45.6042C97.5366 45.0106 97.4213 44.3746 97.4213 43.6962C97.4213 42.8119 97.6215 42.0002 98.022 41.2613C98.4346 40.5223 98.9989 39.9347 99.7148 39.4986C100.431 39.0504 101.244 38.8263 102.154 38.8263C103.088 38.8263 103.901 39.0504 104.593 39.4986C105.297 39.9469 105.849 40.5405 106.249 41.2794C106.65 42.0063 106.85 42.8058 106.85 43.6781C106.85 43.775 106.85 43.8719 106.85 43.9688C106.85 44.0536 106.844 44.1202 106.832 44.1687H98.7137C98.7744 44.8471 98.9624 45.4528 99.278 45.9858C99.6056 46.5067 100.024 46.9247 100.534 47.2397C101.056 47.5425 101.62 47.6939 102.227 47.6939C102.846 47.6939 103.428 47.5365 103.974 47.2215C104.532 46.9065 104.921 46.4946 105.139 45.9858L106.213 46.2766C106.019 46.7248 105.722 47.1306 105.321 47.4941C104.921 47.8575 104.447 48.1422 103.901 48.3481C103.367 48.5419 102.791 48.6389 102.172 48.6389ZM98.6773 43.2783H105.685C105.637 42.5878 105.449 41.9821 105.121 41.4611C104.805 40.9402 104.387 40.5344 103.865 40.2437C103.355 39.9408 102.791 39.7894 102.172 39.7894C101.553 39.7894 100.989 39.9408 100.479 40.2437C99.9696 40.5344 99.551 40.9463 99.2233 41.4793C98.9078 42.0002 98.7258 42.5999 98.6773 43.2783Z" fill="#AE1913"/>
<path d="M120.452 38.9898H121.671L117.594 48.4571H116.52L114.536 43.7507L112.57 48.4571H111.496L107.419 38.9898H108.62L112.079 47.1851L113.826 42.9149L112.224 39.008H113.335L114.536 42.079L115.755 39.008H116.848L115.264 42.9149L117.011 47.1851L120.452 38.9898Z" fill="#AE1913"/>
</svg>
