<svg width="114" height="117" viewBox="0 0 114 117" fill="none" xmlns="http://www.w3.org/2000/svg">
<path d="M22.9802 0L53.5527 30.2758C53.6887 30.4104 53.908 30.4111 54.0448 30.2773L84.9943 0H75.156L53.9872 20.9862L32.8185 0H22.9802Z" fill="#AE1913"/>
<path d="M74.8788 61.0101L86.4694 23.169L59.155 50.2479L59.1947 50.2877L54.4814 54.8852C54.345 55.0182 54.1268 55.0179 53.9909 54.8844L49.2915 50.2729L49.3464 50.2184L22.5368 23.3158L34.0895 61.0101H26.9076L13.5166 16.2079C12.383 11.8248 17.8223 8.77175 21.0301 11.9907L54.2657 45.3416L87.9681 11.9297C91.1854 8.74012 96.5926 11.7965 95.4625 16.166L82.0606 61.0101H74.8788Z" fill="#AE1913"/>
<path d="M16.2123 94.1299V81.133L11.1162 90.811H8.96015L3.86407 81.133V94.1299H0V74.3278H4.14407L10.0242 85.5955L15.9603 74.3278H20.0763V94.1299H16.2123Z" fill="#AE1913"/>
<path d="M30.393 94.4088C29.1983 94.4088 28.1249 94.2136 27.1729 93.8231C26.2209 93.4141 25.4089 92.8563 24.7369 92.1497C24.0835 91.4431 23.5795 90.6343 23.2249 89.7232C22.8702 88.8122 22.6929 87.8546 22.6929 86.8505C22.6929 85.8279 22.8702 84.861 23.2249 83.9499C23.5795 83.0388 24.0835 82.23 24.7369 81.5235C25.4089 80.8169 26.2209 80.2684 27.1729 79.8779C28.1249 79.4689 29.1983 79.2644 30.393 79.2644C31.5877 79.2644 32.6517 79.4689 33.585 79.8779C34.5371 80.2684 35.3491 80.8169 36.0211 81.5235C36.6931 82.23 37.1971 83.0388 37.5331 83.9499C37.8878 84.861 38.0651 85.8279 38.0651 86.8505C38.0651 87.8546 37.8878 88.8122 37.5331 89.7232C37.1971 90.6343 36.6931 91.4431 36.0211 92.1497C35.3677 92.8563 34.5651 93.4141 33.613 93.8231C32.661 94.2136 31.5877 94.4088 30.393 94.4088ZM26.5569 86.8505C26.5569 87.7058 26.7249 88.4682 27.0609 89.1375C27.3969 89.7883 27.8543 90.2996 28.433 90.6715C29.0116 91.0434 29.665 91.2293 30.393 91.2293C31.1023 91.2293 31.7463 91.0434 32.325 90.6715C32.9037 90.281 33.361 89.7604 33.697 89.1096C34.0517 88.4403 34.229 87.6779 34.229 86.8226C34.229 85.9859 34.0517 85.2329 33.697 84.5635C33.361 83.8942 32.9037 83.3735 32.325 83.0017C31.7463 82.6298 31.1023 82.4439 30.393 82.4439C29.665 82.4439 29.0116 82.6391 28.433 83.0296C27.8543 83.4014 27.3969 83.922 27.0609 84.5914C26.7249 85.2422 26.5569 85.9952 26.5569 86.8505Z" fill="#AE1913"/>
<path d="M49.3338 82.7507C48.1951 82.7507 47.1777 82.9738 46.2817 83.42C45.3857 83.8477 44.7417 84.4706 44.3497 85.2887V94.1299H40.5976V79.5154H44.0417V82.6391C44.5644 81.635 45.227 80.8448 46.0297 80.2684C46.8324 79.692 47.6817 79.3759 48.5778 79.3201C48.7831 79.3201 48.9418 79.3201 49.0538 79.3201C49.1658 79.3201 49.2591 79.3294 49.3338 79.348V82.7507Z" fill="#AE1913"/>
<path d="M58.0106 94.4088C56.816 94.4088 55.7426 94.2136 54.7906 93.8231C53.8386 93.4141 53.0266 92.8563 52.3545 92.1497C51.7012 91.4431 51.1972 90.6343 50.8425 89.7232C50.4878 88.8122 50.3105 87.8546 50.3105 86.8505C50.3105 85.8279 50.4878 84.861 50.8425 83.9499C51.1972 83.0388 51.7012 82.23 52.3545 81.5235C53.0266 80.8169 53.8386 80.2684 54.7906 79.8779C55.7426 79.4689 56.816 79.2644 58.0106 79.2644C59.2053 79.2644 60.2693 79.4689 61.2027 79.8779C62.1547 80.2684 62.9667 80.8169 63.6387 81.5235C64.3108 82.23 64.8148 83.0388 65.1508 83.9499C65.5054 84.861 65.6828 85.8279 65.6828 86.8505C65.6828 87.8546 65.5054 88.8122 65.1508 89.7232C64.8148 90.6343 64.3108 91.4431 63.6387 92.1497C62.9854 92.8563 62.1827 93.4141 61.2307 93.8231C60.2787 94.2136 59.2053 94.4088 58.0106 94.4088ZM54.1746 86.8505C54.1746 87.7058 54.3426 88.4682 54.6786 89.1375C55.0146 89.7883 55.4719 90.2996 56.0506 90.6715C56.6293 91.0434 57.2826 91.2293 58.0106 91.2293C58.72 91.2293 59.364 91.0434 59.9427 90.6715C60.5214 90.281 60.9787 89.7604 61.3147 89.1096C61.6694 88.4403 61.8467 87.6779 61.8467 86.8226C61.8467 85.9859 61.6694 85.2329 61.3147 84.5635C60.9787 83.8942 60.5214 83.3735 59.9427 83.0017C59.364 82.6298 58.72 82.4439 58.0106 82.4439C57.2826 82.4439 56.6293 82.6391 56.0506 83.0296C55.4719 83.4014 55.0146 83.922 54.6786 84.5914C54.3426 85.2422 54.1746 85.9952 54.1746 86.8505Z" fill="#AE1913"/>
<path d="M75.0474 94.4088C73.8527 94.4088 72.7794 94.2136 71.8273 93.8231C70.8753 93.4141 70.0633 92.8563 69.3913 92.1497C68.7193 91.4245 68.1966 90.6064 67.8233 89.6954C67.4686 88.7843 67.2913 87.8267 67.2913 86.8226C67.2913 85.4467 67.5993 84.1917 68.2153 83.0574C68.85 81.9046 69.746 80.9843 70.9033 80.2963C72.0607 79.6083 73.4327 79.2644 75.0194 79.2644C76.6061 79.2644 77.9688 79.6083 79.1075 80.2963C80.2462 80.9843 81.0955 81.8861 81.6555 83.0017L77.9874 84.1173C77.6701 83.5781 77.2501 83.169 76.7274 82.8901C76.2048 82.5926 75.6261 82.4439 74.9914 82.4439C74.2821 82.4439 73.6287 82.6298 73.0314 83.0017C72.4527 83.3549 71.9953 83.8663 71.6593 84.5356C71.3233 85.1864 71.1553 85.9487 71.1553 86.8226C71.1553 87.6779 71.3233 88.4403 71.6593 89.1096C72.014 89.7604 72.4807 90.281 73.0594 90.6715C73.638 91.0434 74.2821 91.2293 74.9914 91.2293C75.4394 91.2293 75.8594 91.1549 76.2514 91.0062C76.6621 90.8574 77.0261 90.6529 77.3434 90.3926C77.6608 90.1323 77.8941 89.8348 78.0434 89.5001L81.7115 90.6157C81.3755 91.3409 80.8808 91.9917 80.2275 92.5681C79.5928 93.1445 78.8368 93.6 77.9594 93.9347C77.1008 94.2508 76.1301 94.4088 75.0474 94.4088Z" fill="#AE1913"/>
<path d="M90.7156 94.4088C89.5209 94.4088 88.4476 94.2136 87.4956 93.8231C86.5436 93.4141 85.7316 92.8563 85.0595 92.1497C84.3875 91.4245 83.8649 90.6064 83.4915 89.6954C83.1368 88.7843 82.9595 87.8267 82.9595 86.8226C82.9595 85.4467 83.2675 84.1917 83.8835 83.0574C84.5182 81.9046 85.4142 80.9843 86.5716 80.2963C87.7289 79.6083 89.1009 79.2644 90.6876 79.2644C92.2743 79.2644 93.637 79.6083 94.7757 80.2963C95.9144 80.9843 96.7637 81.8861 97.3237 83.0017L93.6557 84.1173C93.3383 83.5781 92.9183 83.169 92.3957 82.8901C91.873 82.5926 91.2943 82.4439 90.6596 82.4439C89.9503 82.4439 89.2969 82.6298 88.6996 83.0017C88.1209 83.3549 87.6636 83.8663 87.3276 84.5356C86.9916 85.1864 86.8236 85.9487 86.8236 86.8226C86.8236 87.6779 86.9916 88.4403 87.3276 89.1096C87.6823 89.7604 88.1489 90.281 88.7276 90.6715C89.3063 91.0434 89.9503 91.2293 90.6596 91.2293C91.1076 91.2293 91.5276 91.1549 91.9196 91.0062C92.3303 90.8574 92.6943 90.6529 93.0117 90.3926C93.329 90.1323 93.5623 89.8348 93.7117 89.5001L97.3797 90.6157C97.0437 91.3409 96.5491 91.9917 95.8957 92.5681C95.261 93.1445 94.505 93.6 93.6277 93.9347C92.769 94.2508 91.7983 94.4088 90.7156 94.4088Z" fill="#AE1913"/>
<path d="M106.328 94.4088C105.133 94.4088 104.06 94.2136 103.108 93.8231C102.156 93.4141 101.344 92.8563 100.672 92.1497C100.018 91.4431 99.5144 90.6343 99.1597 89.7232C98.8051 88.8122 98.6277 87.8546 98.6277 86.8505C98.6277 85.8279 98.8051 84.861 99.1597 83.9499C99.5144 83.0388 100.018 82.23 100.672 81.5235C101.344 80.8169 102.156 80.2684 103.108 79.8779C104.06 79.4689 105.133 79.2644 106.328 79.2644C107.523 79.2644 108.587 79.4689 109.52 79.8779C110.472 80.2684 111.284 80.8169 111.956 81.5235C112.628 82.23 113.132 83.0388 113.468 83.9499C113.823 84.861 114 85.8279 114 86.8505C114 87.8546 113.823 88.8122 113.468 89.7232C113.132 90.6343 112.628 91.4431 111.956 92.1497C111.303 92.8563 110.5 93.4141 109.548 93.8231C108.596 94.2136 107.523 94.4088 106.328 94.4088ZM102.492 86.8505C102.492 87.7058 102.66 88.4682 102.996 89.1375C103.332 89.7883 103.789 90.2996 104.368 90.6715C104.947 91.0434 105.6 91.2293 106.328 91.2293C107.037 91.2293 107.681 91.0434 108.26 90.6715C108.839 90.281 109.296 89.7604 109.632 89.1096C109.987 88.4403 110.164 87.6779 110.164 86.8226C110.164 85.9859 109.987 85.2329 109.632 84.5635C109.296 83.8942 108.839 83.3735 108.26 83.0017C107.681 82.6298 107.037 82.4439 106.328 82.4439C105.6 82.4439 104.947 82.6391 104.368 83.0296C103.789 83.4014 103.332 83.922 102.996 84.5914C102.66 85.2422 102.492 85.9952 102.492 86.8505Z" fill="#AE1913"/>
<path d="M37.5716 101.939L42.9056 114.971L48.2187 101.939H49.7518L43.5777 116.791H42.2336L36.0385 101.939H37.5716Z" fill="#AE1913"/>
<path d="M51.5937 116.791V105.893H53.0217V116.791H51.5937ZM51.5937 103.613V101.521H53.0217V103.613H51.5937Z" fill="#AE1913"/>
<path d="M60.8921 117C60.1081 117 59.3801 116.854 58.7081 116.561C58.0361 116.254 57.4551 115.843 56.9651 115.327C56.475 114.797 56.09 114.19 55.81 113.507C55.544 112.823 55.411 112.091 55.411 111.31C55.411 110.292 55.642 109.358 56.104 108.507C56.58 107.657 57.2311 106.98 58.0571 106.478C58.8831 105.962 59.8211 105.704 60.8711 105.704C61.9491 105.704 62.8872 105.962 63.6852 106.478C64.4972 106.994 65.1342 107.678 65.5962 108.528C66.0582 109.365 66.2892 110.285 66.2892 111.289C66.2892 111.401 66.2892 111.513 66.2892 111.624C66.2892 111.722 66.2822 111.798 66.2682 111.854H56.9021C56.9721 112.635 57.1891 113.332 57.5531 113.946C57.9311 114.546 58.4141 115.027 59.0021 115.389C59.6041 115.738 60.2551 115.912 60.9551 115.912C61.6691 115.912 62.3411 115.731 62.9712 115.368C63.6152 115.006 64.0632 114.532 64.3152 113.946L65.5542 114.281C65.3302 114.797 64.9872 115.264 64.5252 115.682C64.0632 116.101 63.5172 116.428 62.8872 116.665C62.2711 116.888 61.6061 117 60.8921 117ZM56.8601 110.829H64.9452C64.8892 110.034 64.6722 109.337 64.2942 108.737C63.9302 108.138 63.4472 107.671 62.8452 107.336C62.2571 106.987 61.6061 106.813 60.8921 106.813C60.1781 106.813 59.5271 106.987 58.9391 107.336C58.3511 107.671 57.8681 108.145 57.4901 108.758C57.1261 109.358 56.916 110.048 56.8601 110.829Z" fill="#AE1913"/>
<path d="M81.9816 105.893H83.3886L78.6845 116.791H77.4455L75.1564 111.373L72.8884 116.791H71.6494L66.9453 105.893H68.3313L72.3214 115.327L74.3374 110.411L72.4894 105.914H73.7704L75.1564 109.449L76.5635 105.914H77.8235L75.9965 110.411L78.0125 115.327L81.9816 105.893Z" fill="#AE1913"/>
</svg>
