<svg width="16" height="17" viewBox="0 0 16 17" fill="none" xmlns="http://www.w3.org/2000/svg">
<g clip-path="url(#clip0_168_965)">
<path d="M8.00004 2.58317C6.22471 2.58317 4.45137 2.45717 2.69337 2.20584L0.666707 1.9165H0.333374V14.5832H0.666707L2.69337 14.2938C4.45104 14.042 6.22443 13.9159 8.00004 13.9165M8.00004 2.58317C9.77537 2.58317 11.5487 2.45717 13.3067 2.20584L15.3334 1.9165H15.6667V14.5832H15.3334L13.3067 14.2938C11.549 14.042 9.77565 13.9159 8.00004 13.9165M8.00004 2.58317V6.24984M8.00004 13.9165V10.2498M8.00004 6.24984C8.53047 6.24984 9.03918 6.46055 9.41425 6.83562C9.78933 7.2107 10 7.7194 10 8.24984C10 8.78027 9.78933 9.28898 9.41425 9.66405C9.03918 10.0391 8.53047 10.2498 8.00004 10.2498M8.00004 6.24984C7.46961 6.24984 6.9609 6.46055 6.58583 6.83562C6.21075 7.2107 6.00004 7.7194 6.00004 8.24984C6.00004 8.78027 6.21075 9.28898 6.58583 9.66405C6.9609 10.0391 7.46961 10.2498 8.00004 10.2498M0.333374 5.24984H0.666707C1.46236 5.24984 2.22542 5.56591 2.78803 6.12852C3.35064 6.69113 3.66671 7.45419 3.66671 8.24984C3.66671 9.04549 3.35064 9.80855 2.78803 10.3712C2.22542 10.9338 1.46236 11.2498 0.666707 11.2498H0.333374M15.6667 11.2498H15.3334C14.5377 11.2498 13.7747 10.9338 13.2121 10.3712C12.6494 9.80855 12.3334 9.04549 12.3334 8.24984C12.3334 7.45419 12.6494 6.69113 13.2121 6.12852C13.7747 5.56591 14.5377 5.24984 15.3334 5.24984H15.6667" stroke="#777777"/>
</g>
<defs>
<clipPath id="clip0_168_965">
<rect width="16" height="16" fill="white" transform="translate(0 0.25)"/>
</clipPath>
</defs>
</svg>
