<svg width="24" height="25" viewBox="0 0 24 25" fill="none" xmlns="http://www.w3.org/2000/svg">
<path d="M2.5 13.5117L4.5 14.5117M21.5 14.0117L19.5 14.5117M8 19.0117L8.246 18.3977C8.611 17.4847 8.794 17.0277 9.175 16.7697C9.555 16.5117 10.047 16.5117 11.031 16.5117H12.969C13.953 16.5117 14.445 16.5117 14.825 16.7697C15.205 17.0277 15.389 17.4847 15.755 18.3977L16 19.0117M2 18.5117V21.3937C2 21.7727 2.24 22.1187 2.622 22.2877C2.869 22.3977 3.105 22.5117 3.391 22.5117H5.109C5.395 22.5117 5.631 22.3977 5.879 22.2877C6.259 22.1187 6.5 21.7727 6.5 21.3937V19.5117M17.5 19.5117V21.3937C17.5 21.7727 17.74 22.1187 18.122 22.2877C18.369 22.3977 18.605 22.5117 18.891 22.5117H20.609C20.895 22.5117 21.131 22.3977 21.379 22.2877C21.759 22.1187 22 21.7727 22 21.3937V18.5117M20 10.0117L21 9.51172M4 10.0117L3 9.51172M4.5 11.0117L5.588 7.74672C6.028 6.42672 6.248 5.76672 6.772 5.38972C7.296 5.01272 7.992 5.01172 9.383 5.01172H14.617C16.008 5.01172 16.704 5.01172 17.227 5.38972C17.752 5.76672 17.972 6.42672 18.412 7.74672L19.5 11.0117M15.5 5.01172C15.26 3.80472 15.14 3.20172 14.854 2.85672C14.568 2.51172 14.188 2.51172 13.429 2.51172H10.572C9.812 2.51172 9.432 2.51172 9.146 2.85672C8.86 3.20172 8.74 3.80472 8.5 5.01172" stroke="#848484" stroke-width="1.5" stroke-linecap="round" stroke-linejoin="round"/>
<path d="M4.5 11.0117H19.5C20.457 11.9687 22 13.3017 22 14.7887V18.0667C22 18.6057 21.62 19.0587 21.117 19.1217L18 19.5117H6L2.883 19.1217C2.38 19.0587 2 18.6057 2 18.0667V14.7887C2 13.3017 3.543 11.9687 4.5 11.0117Z" stroke="#848484" stroke-width="1.5" stroke-linecap="round" stroke-linejoin="round"/>
</svg>
