<svg width="25" height="25" viewBox="0 0 25 25" fill="none" xmlns="http://www.w3.org/2000/svg">
<path d="M2.49997 10.5244C2.49997 7.20744 5.18297 4.52444 8.49997 4.52444L7.64297 6.23844M22.5 14.5244C22.5 17.8414 19.817 20.5244 16.5 20.5244L17.357 18.8104M17.5 7.02444H17.509M7.49997 18.0244H7.50897M17.75 3.04044C19.58 2.28544 21.192 2.53644 22.065 2.69644C22.314 2.74244 22.5 2.98644 22.5 3.26944V9.72944C22.5 10.0674 22.238 10.3194 21.94 10.2674C21.044 10.1084 19.497 9.91244 17.75 10.6324C15.872 11.4074 13.982 11.5524 12.95 11.5204C12.694 11.5124 12.5 11.2704 12.5 10.9804V4.52044C12.5 4.18744 12.755 3.92544 13.051 3.93044C14.101 3.95044 15.931 3.79044 17.75 3.04044ZM7.74997 14.0404C9.57997 13.2854 11.191 13.5364 12.065 13.6964C12.314 13.7424 12.5 13.9864 12.5 14.2694V20.7294C12.5 21.0674 12.238 21.3194 11.94 21.2674C11.044 21.1084 9.49697 20.9124 7.74997 21.6334C5.87197 22.4074 3.98197 22.5534 2.94997 22.5204C2.69397 22.5124 2.49997 22.2704 2.49997 21.9804V15.5194C2.49997 15.1864 2.75497 14.9244 3.05097 14.9294C4.10097 14.9494 5.93097 14.7904 7.74997 14.0404Z" stroke="#848484" stroke-width="1.5" stroke-linecap="round" stroke-linejoin="round"/>
</svg>
