<svg width="25" height="25" viewBox="0 0 25 25" fill="none" xmlns="http://www.w3.org/2000/svg">
<path d="M2.5 17.1812C2.5 15.8712 2.5 15.2172 2.795 14.7362C2.95987 14.4673 3.18602 14.2411 3.455 14.0763C3.935 13.7813 4.591 13.7812 5.9 13.7812H7C8.886 13.7812 9.828 13.7813 10.414 14.3673C11 14.9533 11 15.8952 11 17.7812V18.8813C11 20.1913 11 20.8453 10.705 21.3263C10.5401 21.5952 10.314 21.8214 10.045 21.9862C9.565 22.2812 8.909 22.2812 7.6 22.2812C5.636 22.2812 4.654 22.2813 3.933 21.8393C3.52954 21.592 3.1903 21.2527 2.943 20.8493M22.5 7.38125C22.5 8.69125 22.5 9.34525 22.205 9.82625C22.0401 10.0952 21.814 10.3214 21.545 10.4862C21.065 10.7812 20.409 10.7812 19.1 10.7812H18C16.114 10.7812 15.172 10.7812 14.586 10.1952C14 9.60925 14 8.66725 14 6.78125V5.68125C14 4.37125 14 3.71725 14.295 3.23625C14.4599 2.96727 14.686 2.74112 14.955 2.57625C15.435 2.28125 16.091 2.28125 17.4 2.28125C19.364 2.28125 20.346 2.28125 21.068 2.72325C21.4715 2.97055 21.8107 3.30979 22.058 3.71325" stroke="#848484" stroke-width="1.5" stroke-linecap="round"/>
<path d="M17 6.53125C17 6.01625 17 5.75825 17.13 5.57625C17.1753 5.51205 17.2311 5.45593 17.295 5.41025C17.477 5.28125 17.735 5.28125 18.25 5.28125C18.765 5.28125 19.023 5.28125 19.205 5.41125C19.2692 5.45654 19.3253 5.51232 19.371 5.57625C19.5 5.75825 19.5 6.01625 19.5 6.53125C19.5 7.04625 19.5 7.30425 19.37 7.48625C19.3247 7.55045 19.2689 7.60657 19.205 7.65225C19.023 7.78125 18.765 7.78125 18.25 7.78125C17.735 7.78125 17.477 7.78125 17.295 7.65125C17.2308 7.60596 17.1747 7.55018 17.129 7.48625C17 7.30425 17 7.04625 17 6.53125ZM13.25 22.2812C13.25 22.4802 13.329 22.6709 13.4697 22.8116C13.6103 22.9522 13.8011 23.0312 14 23.0312C14.1989 23.0312 14.3897 22.9522 14.5303 22.8116C14.671 22.6709 14.75 22.4802 14.75 22.2812H13.25ZM19.5 13.0312H17.5V14.5312H19.5V13.0312ZM13.25 19.2812V22.2812H14.75V19.2812H13.25ZM17.5 13.0312C16.813 13.0312 16.242 13.0312 15.781 13.0772C15.307 13.1252 14.868 13.2302 14.472 13.4952L15.306 14.7423C15.414 14.6693 15.578 14.6053 15.933 14.5693C16.3 14.5323 16.783 14.5312 17.5 14.5312V13.0312ZM14.75 17.2812C14.75 16.5632 14.75 16.0812 14.788 15.7142C14.824 15.3593 14.888 15.1952 14.961 15.0872L13.714 14.2533C13.45 14.6493 13.344 15.0883 13.296 15.5623C13.249 16.0233 13.25 16.5942 13.25 17.2812H14.75ZM14.472 13.4952C14.172 13.6952 13.914 13.9532 13.714 14.2533L14.961 15.0872C15.0532 14.9515 15.1703 14.8344 15.306 14.7423L14.472 13.4952ZM23.25 13.7812C23.25 13.5823 23.171 13.3916 23.0303 13.2509C22.8897 13.1103 22.6989 13.0312 22.5 13.0312C22.3011 13.0312 22.1103 13.1103 21.9697 13.2509C21.829 13.3916 21.75 13.5823 21.75 13.7812H23.25ZM17.5 23.0312H19.5V21.5312H17.5V23.0312ZM23.25 17.2812V13.7812H21.75V17.2812H23.25ZM19.5 23.0312C19.956 23.0312 20.335 23.0312 20.645 23.0112C20.962 22.9893 21.262 22.9433 21.552 22.8223L20.978 21.4363C20.901 21.4683 20.784 21.4972 20.543 21.5142C20.296 21.5312 19.976 21.5312 19.5 21.5312V23.0312ZM21.75 19.2812C21.75 19.7572 21.75 20.0772 21.733 20.3242C21.716 20.5652 21.687 20.6823 21.655 20.7593L23.041 21.3333C23.161 21.0433 23.208 20.7433 23.229 20.4263C23.25 20.1163 23.25 19.7362 23.25 19.2812H21.75ZM21.552 22.8223C21.8858 22.6842 22.189 22.4807 22.4445 22.2254C22.7 21.97 22.9027 21.6669 23.041 21.3333L21.655 20.7593C21.5922 20.911 21.5001 21.049 21.3839 21.1651C21.2677 21.2813 21.1298 21.3734 20.978 21.4363L21.552 22.8223Z" fill="#848484"/>
<path d="M2.5 7.38125C2.5 5.41725 2.5 4.43525 2.942 3.71425C3.1893 3.31079 3.52854 2.97155 3.932 2.72425C4.655 2.28125 5.637 2.28125 7.6 2.28125C8.91 2.28125 9.564 2.28125 10.045 2.57625C10.314 2.74112 10.5401 2.96727 10.705 3.23625C11 3.71625 11 4.37225 11 5.68125V6.78125C11 8.66725 11 9.60925 10.414 10.1952C9.828 10.7812 8.886 10.7812 7 10.7812H5.9C4.59 10.7812 3.936 10.7812 3.455 10.4862C3.18602 10.3214 2.95987 10.0952 2.795 9.82625C2.5 9.34625 2.5 8.69025 2.5 7.38125Z" stroke="#848484" stroke-width="1.5"/>
<path d="M5.5 6.53125C5.5 6.01625 5.5 5.75825 5.63 5.57625C5.67529 5.51205 5.73107 5.45593 5.795 5.41025C5.977 5.28125 6.235 5.28125 6.75 5.28125C7.265 5.28125 7.523 5.28125 7.705 5.41125C7.7692 5.45654 7.82532 5.51232 7.871 5.57625C8 5.75825 8 6.01625 8 6.53125C8 7.04625 8 7.30425 7.87 7.48625C7.82471 7.55045 7.76893 7.60657 7.705 7.65225C7.523 7.78125 7.265 7.78125 6.75 7.78125C6.235 7.78125 5.977 7.78125 5.795 7.65125C5.7308 7.60596 5.67468 7.55018 5.629 7.48625C5.5 7.30425 5.5 7.04625 5.5 6.53125ZM5.5 18.0312C5.5 17.5162 5.5 17.2583 5.63 17.0763C5.67529 17.012 5.73107 16.9559 5.795 16.9102C5.977 16.7812 6.235 16.7812 6.75 16.7812C7.265 16.7812 7.523 16.7812 7.705 16.9112C7.7692 16.9565 7.82532 17.0123 7.871 17.0763C8 17.2583 8 17.5162 8 18.0312C8 18.5463 8 18.8042 7.87 18.9862C7.82471 19.0505 7.76893 19.1066 7.705 19.1523C7.523 19.2812 7.265 19.2812 6.75 19.2812C6.235 19.2812 5.977 19.2813 5.795 19.1513C5.7308 19.106 5.67468 19.0502 5.629 18.9862C5.5 18.8042 5.5 18.5463 5.5 18.0312ZM16.5 18.0312C16.5 17.3293 16.5 16.9783 16.669 16.7253C16.7418 16.6165 16.8352 16.523 16.944 16.4503C17.197 16.2813 17.548 16.2812 18.25 16.2812C18.952 16.2812 19.303 16.2813 19.556 16.4503C19.6648 16.523 19.7582 16.6165 19.831 16.7253C20 16.9783 20 17.3293 20 18.0312C20 18.7332 20 19.0842 19.831 19.3372C19.7582 19.446 19.6648 19.5395 19.556 19.6122C19.303 19.7812 18.952 19.7812 18.25 19.7812C17.548 19.7812 17.197 19.7812 16.944 19.6122C16.8352 19.5395 16.7418 19.446 16.669 19.3372C16.5 19.0842 16.5 18.7332 16.5 18.0312Z" fill="#848484"/>
</svg>
