<svg width="51" height="52" viewBox="0 0 51 52" fill="none" xmlns="http://www.w3.org/2000/svg">
<path d="M27.2613 31.8598L27.2613 41.5717C27.2613 44.3038 28.6273 45.648 31.4442 45.648L40.9857 45.648C43.8035 45.648 45.1477 44.3038 45.1477 41.5717L45.1477 31.8598C45.1477 29.1486 43.8035 27.7826 40.9857 27.7826L31.4442 27.7826C28.6273 27.7826 27.2613 29.1486 27.2613 31.8598ZM27.2613 10.4289L27.2613 20.1626C27.2613 22.8729 28.6273 24.239 31.4442 24.239L40.9857 24.239C43.8035 24.239 45.1477 22.8729 45.1477 20.1626L45.1477 10.4289C45.1477 7.71861 43.8035 6.35254 40.9857 6.35254L31.4442 6.35254C28.6273 6.35254 27.2613 7.71861 27.2613 10.4289ZM30.2703 10.4717C30.2703 9.72491 30.6546 9.36154 31.4451 9.36154L40.9848 9.36154C41.7535 9.36154 42.1378 9.72491 42.1378 10.4726L42.1378 20.0989C42.1378 20.8456 41.7535 21.23 40.9848 21.23L31.4433 21.23C30.6537 21.23 30.2694 20.8456 30.2694 20.0989L30.2703 10.4717ZM30.2703 31.9017C30.2703 31.1549 30.6546 30.7925 31.4451 30.7925L40.9848 30.7925C41.7535 30.7925 42.1378 31.1549 42.1378 31.9017L42.1378 41.5498C42.1378 42.276 41.7535 42.639 40.9848 42.639L31.4433 42.639C30.6537 42.639 30.2694 42.2757 30.2694 41.5498L30.2703 31.9017ZM33.9632 13.4598L33.9632 17.1099C33.9632 17.4305 34.0907 17.558 34.4541 17.558L37.9968 17.558C38.3392 17.558 38.4667 17.4305 38.4667 17.1099L38.4667 13.4598C38.4667 13.1401 38.3392 13.0545 37.9977 13.0545L34.4541 13.0545C34.0916 13.0545 33.9632 13.1401 33.9632 13.4598ZM33.9623 35.0182L33.9623 38.6474C33.9623 38.967 34.0898 39.0955 34.4532 39.0955L37.9959 39.0955C38.3383 39.0955 38.4658 38.968 38.4658 38.6474L38.4658 35.0182C38.4658 34.6985 38.3383 34.592 37.9968 34.592L34.4532 34.592C34.0907 34.592 33.9623 34.6985 33.9623 35.0182ZM5.85038 10.4289L5.85038 20.1626C5.85038 22.8729 7.19459 24.239 10.0123 24.239L19.5748 24.239C22.3707 24.239 23.7368 22.8729 23.7368 20.1626L23.7368 10.4289C23.7368 7.71861 22.3707 6.35254 19.5748 6.35254L10.0123 6.35254C7.1946 6.35254 5.85038 7.71861 5.85038 10.4289ZM18.2088 29.2124L18.2088 32.8625C18.2088 33.1831 18.3363 33.3106 18.7006 33.3106L22.2432 33.3106C22.5848 33.3106 22.7123 33.1831 22.7123 32.8625L22.7123 29.2124C22.7123 28.8927 22.5848 28.8071 22.2432 28.8071L18.7006 28.8071C18.3363 28.8071 18.2088 28.8927 18.2088 29.2124ZM18.2088 40.5471L18.2088 44.1964C18.2088 44.5169 18.3363 44.6453 18.7006 44.6453L22.2432 44.6453C22.5848 44.6453 22.7123 44.5169 22.7123 44.1964L22.7123 40.5471C22.7123 40.2266 22.5848 40.1191 22.2432 40.1191L18.7006 40.1191C18.3363 40.1191 18.2088 40.2266 18.2088 40.5471ZM8.8612 10.4717C8.8612 9.72491 9.24552 9.36154 10.0142 9.36154L19.5557 9.36154C20.3453 9.36154 20.7296 9.72491 20.7296 10.4726L20.7296 20.0989C20.7296 20.8456 20.3453 21.23 19.5548 21.23L10.0142 21.23C9.24552 21.23 8.8612 20.8456 8.8612 20.0989L8.8612 10.4717ZM12.5332 13.4598L12.5332 17.1099C12.5332 17.4305 12.6607 17.558 13.045 17.558L16.5668 17.558C16.9083 17.558 17.0367 17.4305 17.0367 17.1099L17.0367 13.4598C17.0367 13.1401 16.9092 13.0545 16.5668 13.0545L13.045 13.0545C12.6607 13.0545 12.5332 13.1401 12.5332 13.4598ZM12.5332 34.9335L12.5332 38.5827C12.5332 38.9033 12.6607 39.0308 13.045 39.0308L16.5668 39.0308C16.9083 39.0308 17.0367 38.9033 17.0367 38.5827L17.0367 34.9326C17.0367 34.6129 16.9092 34.5273 16.5668 34.5273L13.045 34.5273C12.6607 34.5273 12.5332 34.6129 12.5332 34.9335ZM6.87675 29.2124L6.87675 32.8625C6.87675 33.1831 7.00426 33.3106 7.36763 33.3106L10.9103 33.3106C11.2527 33.3106 11.3802 33.1831 11.3802 32.8625L11.3802 29.2124C11.3802 28.8927 11.2527 28.8071 10.9103 28.8071L7.36763 28.8071C7.00426 28.8071 6.87675 28.8927 6.87675 29.2124ZM6.87584 40.5471L6.87584 44.1964C6.87584 44.5169 7.00334 44.6453 7.36672 44.6453L10.9094 44.6453C11.2518 44.6453 11.3793 44.5169 11.3793 44.1964L11.3793 40.5471C11.3793 40.2266 11.2518 40.1191 10.9094 40.1191L7.36672 40.1191C7.00334 40.1191 6.87584 40.2266 6.87584 40.5471Z" fill="black"/>
</svg>
