<svg width="25" height="24" viewBox="0 0 25 24" fill="none" xmlns="http://www.w3.org/2000/svg">
<path d="M15.6738 2.42925L15.6847 2.44178L15.6965 2.45355L19.5465 6.30355C19.8557 6.61278 20.0001 6.98678 20.0001 7.35V20.5C20.0001 21.3239 19.3239 22 18.5001 22H6.50006C5.6762 22 5.00006 21.3239 5.00006 20.5V3.5C5.00006 2.67614 5.6762 2 6.50006 2H14.6501C15.0766 2 15.4316 2.15243 15.6738 2.42925Z" stroke="#676767"/>
<path d="M16.5001 19H8.50006C7.95006 19 7.50006 18.55 7.50006 18V12C7.50006 11.45 7.95006 11 8.50006 11H16.5001C17.0501 11 17.5001 11.45 17.5001 12V18C17.5001 18.55 17.0501 19 16.5001 19Z" fill="#A9A9A9"/>
<path d="M15.0001 15V16.5H17.5001V17.5H15.0001V19H14.0001V11H15.0001V14H17.5001V15H15.0001ZM7.50006 14.5V15.5H10.0001V16.5H7.50006V17.5H10.0001V19H11.0001V14.5H7.50006Z" fill="#676767"/>
</svg>
