<svg width="25" height="25" viewBox="0 0 25 25" fill="none" xmlns="http://www.w3.org/2000/svg">
<path d="M5.5 20.3379V19.3379C5.5 17.4814 6.2375 15.7009 7.55025 14.3881C8.86301 13.0754 10.6435 12.3379 12.5 12.3379M12.5 12.3379C14.3565 12.3379 16.137 13.0754 17.4497 14.3881C18.7625 15.7009 19.5 17.4814 19.5 19.3379V20.3379M12.5 12.3379C13.5609 12.3379 14.5783 11.9165 15.3284 11.1663C16.0786 10.4162 16.5 9.39876 16.5 8.33789C16.5 7.27702 16.0786 6.25961 15.3284 5.50946C14.5783 4.75932 13.5609 4.33789 12.5 4.33789C11.4391 4.33789 10.4217 4.75932 9.67157 5.50946C8.92143 6.25961 8.5 7.27702 8.5 8.33789C8.5 9.39876 8.92143 10.4162 9.67157 11.1663C10.4217 11.9165 11.4391 12.3379 12.5 12.3379Z" stroke="#848484" stroke-width="1.5" stroke-linecap="round" stroke-linejoin="round"/>
</svg>
