<svg width="19" height="27" viewBox="0 0 19 27" fill="none" xmlns="http://www.w3.org/2000/svg">
<path d="M1 5.95326C1 4.42299 1 3.65785 1.30883 3.07307C1.58047 2.55891 2.0139 2.14089 2.547 1.87891C3.15333 1.58105 3.94667 1.58105 5.53333 1.58105H13.4667C15.0533 1.58105 15.8467 1.58105 16.453 1.87891C16.9861 2.14089 17.4195 2.55891 17.6912 3.07307C18 3.65785 18 4.42299 18 5.95326V24.1321C18 24.7961 18 25.1281 17.8569 25.3098C17.7951 25.3888 17.7162 25.454 17.6257 25.5007C17.5352 25.5474 17.4352 25.5746 17.3327 25.5803C17.0962 25.594 16.81 25.4096 16.2377 25.042L9.5 20.7094L2.76233 25.0407C2.19 25.4096 1.90383 25.594 1.66583 25.5803C1.5636 25.5744 1.46393 25.5471 1.37368 25.5004C1.28343 25.4537 1.20476 25.3887 1.14308 25.3098C1 25.1281 1 24.7961 1 24.1321V5.95326Z" stroke="#848484" stroke-width="1.5" stroke-linecap="round" stroke-linejoin="round"/>
</svg>
