<svg width="19" height="19" viewBox="0 0 19 19" fill="none" xmlns="http://www.w3.org/2000/svg">
<path d="M17.5 16.3379V7.83789C17.5 7.68265 17.4639 7.52953 17.3944 7.39068C17.325 7.25182 17.2242 7.13104 17.1 7.03789L10.1 1.78789C9.9269 1.65807 9.71637 1.58789 9.5 1.58789C9.28363 1.58789 9.0731 1.65807 8.9 1.78789L1.9 7.03789C1.7758 7.13104 1.675 7.25182 1.60557 7.39068C1.53614 7.52953 1.5 7.68265 1.5 7.83789V16.3379C1.5 16.6031 1.60536 16.8575 1.79289 17.045C1.98043 17.2325 2.23478 17.3379 2.5 17.3379H6.5C6.76522 17.3379 7.01957 17.2325 7.20711 17.045C7.39464 16.8575 7.5 16.6031 7.5 16.3379V13.3379C7.5 13.0727 7.60536 12.8183 7.79289 12.6308C7.98043 12.4432 8.23478 12.3379 8.5 12.3379H10.5C10.7652 12.3379 11.0196 12.4432 11.2071 12.6308C11.3946 12.8183 11.5 13.0727 11.5 13.3379V16.3379C11.5 16.6031 11.6054 16.8575 11.7929 17.045C11.9804 17.2325 12.2348 17.3379 12.5 17.3379H16.5C16.7652 17.3379 17.0196 17.2325 17.2071 17.045C17.3946 16.8575 17.5 16.6031 17.5 16.3379Z" fill="#848484" stroke="#848484" stroke-width="2" stroke-linecap="round" stroke-linejoin="round"/>
</svg>
