<svg width="25" height="25" viewBox="0 0 25 25" fill="none" xmlns="http://www.w3.org/2000/svg">
<path d="M7.62917 1.97776L8.12756 1.93774C8.0978 1.56711 8.24135 1.31948 8.39829 1.24604L8.3993 1.24557L9.09073 0.920112C9.36202 0.810483 9.66545 0.810435 9.93696 0.920259C10.2117 1.0314 10.4317 1.24616 10.5495 1.51812L11.2905 3.22969L11.2884 3.23451L5.82048 15.8612L5.81936 15.8638L5.68893 16.1604L1.07893 5.49404C0.975535 5.23231 0.973635 4.94132 1.07375 4.67817C1.17264 4.41821 1.36397 4.20411 1.6108 4.07666L2.3128 3.78752L2.31319 3.78736C2.47827 3.71921 2.77192 3.7884 3.02678 4.08277C3.30503 4.40446 3.65063 4.66102 4.0391 4.83425C4.50094 5.0407 5.00861 5.12322 5.51207 5.07366C6.01552 5.02411 6.49736 4.84419 6.91008 4.55165C7.3228 4.25912 7.65214 3.86406 7.86562 3.40544C8.0791 2.94682 8.16934 2.44048 8.12745 1.93635L7.62917 1.97776ZM7.62917 1.97776C7.59145 1.50804 7.75775 0.993748 8.18636 0.793175L3.40479 3.75549C3.63519 4.02192 3.92141 4.23438 4.24315 4.37778C4.62565 4.54877 5.04612 4.61711 5.46309 4.57607C5.88006 4.53502 6.27913 4.38601 6.62095 4.14373C6.96276 3.90145 7.23552 3.57427 7.41232 3.19444C7.58913 2.81462 7.66386 2.39527 7.62917 1.97776ZM21.9155 7.08508L21.9537 7.04018C22.1927 6.78531 22.4659 6.72518 22.6241 6.78949C22.6243 6.78957 22.6245 6.78964 22.6247 6.78972L23.3652 7.09562C23.6219 7.22732 23.8209 7.44943 23.9236 7.71934C24.0275 7.99237 24.0253 8.29435 23.9176 8.56573L17.6248 23.1311L17.6246 23.1317C17.5029 23.4143 17.2747 23.6374 16.9894 23.7527C16.7047 23.8679 16.3861 23.8662 16.1025 23.7481C16.102 23.7479 16.1015 23.7477 16.101 23.7475L8.49694 20.5077C8.49671 20.5076 8.49648 20.5075 8.49626 20.5074C8.21405 20.3859 7.99107 20.1581 7.87564 19.8734C7.7607 19.5899 7.76163 19.2726 7.87811 18.9898L8.70059 17.121L8.70176 17.1183L14.176 4.47878L14.1765 4.47752C14.2979 4.19503 14.5259 3.9718 14.8109 3.85628C15.0929 3.74198 15.4082 3.74225 15.6898 3.85677L16.4232 4.19978C16.4232 4.1998 16.4233 4.19981 16.4233 4.19983C16.5795 4.27298 16.7227 4.51943 16.6892 4.88794L16.6891 4.88913C16.6511 5.31899 16.7067 5.752 16.8521 6.15831C16.9975 6.56463 17.2292 6.9346 17.5314 7.24273L17.5324 7.24374C17.8219 7.53737 18.1694 7.76761 18.5527 7.91984C18.9359 8.07207 19.3467 8.14298 19.7588 8.12806C20.1709 8.11314 20.5755 8.01273 20.9467 7.83318C21.318 7.65364 21.6479 7.39888 21.9155 7.08508Z" stroke="#848484"/>
</svg>
