<svg width="25" height="25" viewBox="0 0 25 25" fill="none" xmlns="http://www.w3.org/2000/svg">
<path d="M9.5 21.3379C8.4 21.3379 7.45833 20.9462 6.675 20.1629C5.89167 19.3796 5.5 18.4379 5.5 17.3379V9.16289C4.91667 8.94622 4.43767 8.58389 4.063 8.07589C3.68833 7.56789 3.50067 6.98856 3.5 6.33789C3.5 5.50456 3.79167 4.79622 4.375 4.21289C4.95833 3.62956 5.66667 3.33789 6.5 3.33789C7.33333 3.33789 8.04167 3.62956 8.625 4.21289C9.20833 4.79622 9.5 5.50456 9.5 6.33789C9.5 6.98789 9.31267 7.56722 8.938 8.07589C8.56333 8.58456 8.084 8.94689 7.5 9.16289V17.3379C7.5 17.8879 7.696 18.3589 8.088 18.7509C8.48 19.1429 8.95067 19.3386 9.5 19.3379C10.0493 19.3372 10.5203 19.1416 10.913 18.7509C11.3057 18.3602 11.5013 17.8892 11.5 17.3379V7.33789C11.5 6.23789 11.8917 5.29622 12.675 4.51289C13.4583 3.72956 14.4 3.33789 15.5 3.33789C16.6 3.33789 17.5417 3.72956 18.325 4.51289C19.1083 5.29622 19.5 6.23789 19.5 7.33789V15.5129C20.0833 15.7296 20.5627 16.0922 20.938 16.6009C21.3133 17.1096 21.5007 17.6886 21.5 18.3379C21.5 19.1712 21.2083 19.8796 20.625 20.4629C20.0417 21.0462 19.3333 21.3379 18.5 21.3379C17.6667 21.3379 16.9583 21.0462 16.375 20.4629C15.7917 19.8796 15.5 19.1712 15.5 18.3379C15.5 17.6879 15.6877 17.1046 16.063 16.5879C16.4383 16.0712 16.9173 15.7129 17.5 15.5129V7.33789C17.5 6.78789 17.3043 6.31722 16.913 5.92589C16.5217 5.53456 16.0507 5.33856 15.5 5.33789C14.9493 5.33722 14.4787 5.53322 14.088 5.92589C13.6973 6.31856 13.5013 6.78922 13.5 7.33789V17.3379C13.5 18.4379 13.1083 19.3796 12.325 20.1629C11.5417 20.9462 10.6 21.3379 9.5 21.3379ZM6.5 7.33789C6.78333 7.33789 7.021 7.24189 7.213 7.04989C7.405 6.85789 7.50067 6.62056 7.5 6.33789C7.49933 6.05522 7.40333 5.81789 7.212 5.62589C7.02067 5.43389 6.78333 5.33789 6.5 5.33789C6.21667 5.33789 5.97933 5.43389 5.788 5.62589C5.59667 5.81789 5.50067 6.05522 5.5 6.33789C5.49933 6.62056 5.59533 6.85822 5.788 7.05089C5.98067 7.24356 6.218 7.33922 6.5 7.33789ZM18.5 19.3379C18.7833 19.3379 19.021 19.2419 19.213 19.0499C19.405 18.8579 19.5007 18.6206 19.5 18.3379C19.4993 18.0552 19.4033 17.8179 19.212 17.6259C19.0207 17.4339 18.7833 17.3379 18.5 17.3379C18.2167 17.3379 17.9793 17.4339 17.788 17.6259C17.5967 17.8179 17.5007 18.0552 17.5 18.3379C17.4993 18.6206 17.5953 18.8582 17.788 19.0509C17.9807 19.2436 18.218 19.3392 18.5 19.3379Z" fill="#848484"/>
</svg>
