<svg width="19" height="19" viewBox="0 0 19 19" fill="none" xmlns="http://www.w3.org/2000/svg">
<path d="M6.5 18.3379C5.4 18.3379 4.45833 17.9462 3.675 17.1629C2.89167 16.3796 2.5 15.4379 2.5 14.3379V6.16289C1.91667 5.94622 1.43767 5.58389 1.063 5.07589C0.688333 4.56789 0.500667 3.98856 0.5 3.33789C0.5 2.50456 0.791667 1.79622 1.375 1.21289C1.95833 0.629557 2.66667 0.337891 3.5 0.337891C4.33333 0.337891 5.04167 0.629557 5.625 1.21289C6.20833 1.79622 6.5 2.50456 6.5 3.33789C6.5 3.98789 6.31267 4.56722 5.938 5.07589C5.56333 5.58456 5.084 5.94689 4.5 6.16289V14.3379C4.5 14.8879 4.696 15.3589 5.088 15.7509C5.48 16.1429 5.95067 16.3386 6.5 16.3379C7.04933 16.3372 7.52033 16.1416 7.913 15.7509C8.30567 15.3602 8.50133 14.8892 8.5 14.3379V4.33789C8.5 3.23789 8.89167 2.29622 9.675 1.51289C10.4583 0.729557 11.4 0.337891 12.5 0.337891C13.6 0.337891 14.5417 0.729557 15.325 1.51289C16.1083 2.29622 16.5 3.23789 16.5 4.33789V12.5129C17.0833 12.7296 17.5627 13.0922 17.938 13.6009C18.3133 14.1096 18.5007 14.6886 18.5 15.3379C18.5 16.1712 18.2083 16.8796 17.625 17.4629C17.0417 18.0462 16.3333 18.3379 15.5 18.3379C14.6667 18.3379 13.9583 18.0462 13.375 17.4629C12.7917 16.8796 12.5 16.1712 12.5 15.3379C12.5 14.6879 12.6877 14.1046 13.063 13.5879C13.4383 13.0712 13.9173 12.7129 14.5 12.5129V4.33789C14.5 3.78789 14.3043 3.31722 13.913 2.92589C13.5217 2.53456 13.0507 2.33856 12.5 2.33789C11.9493 2.33722 11.4787 2.53322 11.088 2.92589C10.6973 3.31856 10.5013 3.78922 10.5 4.33789V14.3379C10.5 15.4379 10.1083 16.3796 9.325 17.1629C8.54167 17.9462 7.6 18.3379 6.5 18.3379ZM3.5 4.33789C3.78333 4.33789 4.021 4.24189 4.213 4.04989C4.405 3.85789 4.50067 3.62056 4.5 3.33789C4.49933 3.05522 4.40333 2.81789 4.212 2.62589C4.02067 2.43389 3.78333 2.33789 3.5 2.33789C3.21667 2.33789 2.97933 2.43389 2.788 2.62589C2.59667 2.81789 2.50067 3.05522 2.5 3.33789C2.49933 3.62056 2.59533 3.85822 2.788 4.05089C2.98067 4.24356 3.218 4.33922 3.5 4.33789ZM15.5 16.3379C15.7833 16.3379 16.021 16.2419 16.213 16.0499C16.405 15.8579 16.5007 15.6206 16.5 15.3379C16.4993 15.0552 16.4033 14.8179 16.212 14.6259C16.0207 14.4339 15.7833 14.3379 15.5 14.3379C15.2167 14.3379 14.9793 14.4339 14.788 14.6259C14.5967 14.8179 14.5007 15.0552 14.5 15.3379C14.4993 15.6206 14.5953 15.8582 14.788 16.0509C14.9807 16.2436 15.218 16.3392 15.5 16.3379Z" fill="#848484"/>
</svg>
